Coordinates
version=1
nRows=24
nColumns=38
inDegrees=no

Units are S.I. units (second, meters, Newtons, ...)
If the header above contains a line with 'inDegrees', this indicates whether rotational values are in degrees (yes) or radians (no).

endheader
time	pelvis_tilt	pelvis_list	pelvis_rotation	pelvis_tx	pelvis_ty	pelvis_tz	hip_flexion_r	hip_adduction_r	hip_rotation_r	knee_angle_r	ankle_angle_r	subtalar_angle_r	mtp_angle_r	hip_flexion_l	hip_adduction_l	hip_rotation_l	knee_angle_l	ankle_angle_l	subtalar_angle_l	mtp_angle_l	lumbar_extension	lumbar_bending	lumbar_rotation	arm_flex_r	arm_add_r	arm_rot_r	elbow_flex_r	pro_sup_r	wrist_flex_r	wrist_dev_r	arm_flex_l	arm_add_l	arm_rot_l	elbow_flex_l	pro_sup_l	wrist_flex_l	wrist_dev_l
0	-3.12502	1.10313	1.55785	0.704363	1.8428	0.997828	0.340206	-0.0651585	-0.0897411	0.758137	-0.552921	0	0	0.741593	0.00231606	-0.0732739	0.30489	-0.166361	0	0	0.402792	-0.0450332	0.0541652	-0.124479	-0.268435	0.193887	0.702042	1.5708	0	0	-0.202384	-0.301313	0.433663	0.44746	1.08829	0	0
0.01	-3.12365	1.10375	1.54903	0.704923	1.83122	0.999123	0.368934	-0.0647031	-0.0736002	0.803551	-0.592273	0	0	0.73219	-0.000773485	-0.0702204	0.315344	-0.152154	0	0	0.408092	-0.0449938	0.0560603	-0.11265	-0.264819	0.226767	0.660599	1.5708	0	0	-0.204119	-0.308276	0.444101	0.465362	1.07935	0	0
0.02	-3.12389	1.10475	1.54063	0.705307	1.81863	1.00034	0.394585	-0.0641992	-0.0596717	0.843135	-0.605503	0	0	0.718876	-0.00360654	-0.0728019	0.321417	-0.136766	0	0	0.414808	-0.0392816	0.0495071	-0.102095	-0.266291	0.269774	0.627991	1.5708	0	0	-0.208114	-0.307116	0.447946	0.470309	1.07136	0	0
0.03	-3.12551	1.10597	1.53318	0.705548	1.80578	1.00186	0.419367	-0.0636527	-0.0467416	0.879999	-0.590035	0	0	0.702804	-0.00628479	-0.080838	0.322747	-0.12443	0	0	0.420121	-0.034272	0.0429532	-0.0908017	-0.265607	0.312048	0.593532	1.5708	0	0	-0.212408	-0.305723	0.447258	0.47619	1.06948	0	0
0.04	-3.12659	1.10695	1.52618	0.705783	1.7929	1.00357	0.443707	-0.0627839	-0.0353985	0.914698	-0.552676	0	0	0.685869	-0.00929519	-0.090447	0.322843	-0.114399	0	0	0.424503	-0.0294917	0.0374184	-0.0815855	-0.263793	0.350594	0.560619	1.5708	0	0	-0.215802	-0.304355	0.44331	0.483356	1.075	0	0
0.05	-3.12718	1.10726	1.52124	0.706158	1.78011	1.00543	0.468196	-0.0626149	-0.0280837	0.946801	-0.50399	0	0	0.668731	-0.0116349	-0.0995077	0.319372	-0.108387	0	0	0.427975	-0.0257479	0.0324761	-0.0750068	-0.261294	0.385015	0.530201	1.5708	0	0	-0.217372	-0.302946	0.43595	0.490623	1.08669	0	0
0.06	-3.12659	1.10736	1.51791	0.706736	1.76743	1.00747	0.492219	-0.0629631	-0.0244587	0.974909	-0.452915	0	0	0.65117	-0.0130165	-0.107303	0.309997	-0.107395	0	0	0.43115	-0.0230239	0.0259721	-0.0695992	-0.258335	0.417747	0.500943	1.5708	0	0	-0.218515	-0.301306	0.424785	0.498439	1.10294	0	0
0.07	-3.12361	1.10755	1.51507	0.707545	1.75494	1.00959	0.515184	-0.0633898	-0.0240361	0.997893	-0.404936	0	0	0.634778	-0.0139301	-0.111331	0.302271	-0.107711	0	0	0.433812	-0.020118	0.0174511	-0.0660568	-0.256104	0.447285	0.474964	1.5708	0	0	-0.21935	-0.299728	0.412082	0.508131	1.12229	0	0
0.08	-3.11992	1.1082	1.51334	0.708469	1.74263	1.01184	0.536862	-0.0644138	-0.0255797	1.01505	-0.363397	0	0	0.618242	-0.0142414	-0.113359	0.29513	-0.10922	0	0	0.435557	-0.0175512	0.00850669	-0.0642281	-0.253917	0.471892	0.451717	1.5708	0	0	-0.219338	-0.29828	0.39868	0.518925	1.14132	0	0
0.09	-3.11498	1.10891	1.51092	0.709357	1.73048	1.01414	0.557684	-0.0650002	-0.0281737	1.0259	-0.331671	0	0	0.602314	-0.0146852	-0.114849	0.290006	-0.110713	0	0	0.437151	-0.014489	-0.000401675	-0.0640729	-0.251953	0.49166	0.431446	1.5708	0	0	-0.218464	-0.29746	0.387912	0.530407	1.15696	0	0
0.1	-3.10853	1.11024	1.50677	0.710137	1.71832	1.01651	0.576857	-0.0644829	-0.0309445	1.0306	-0.307036	0	0	0.585698	-0.0157394	-0.115796	0.285871	-0.111762	0	0	0.43814	-0.0105381	-0.00907273	-0.0654665	-0.250966	0.508179	0.414057	1.5708	0	0	-0.217495	-0.297292	0.379136	0.542955	1.16942	0	0
0.11	-3.10095	1.11162	1.50132	0.710863	1.70617	1.01889	0.594974	-0.0630995	-0.0339369	1.02959	-0.287095	0	0	0.568426	-0.0176439	-0.118509	0.280648	-0.113102	0	0	0.438899	-0.00585748	-0.0173664	-0.0684408	-0.250605	0.520081	0.399543	1.5708	0	0	-0.216293	-0.297757	0.372311	0.556711	1.17995	0	0
0.12	-3.09291	1.11225	1.49524	0.711565	1.69416	1.02118	0.61314	-0.0610978	-0.0368682	1.02353	-0.267508	0	0	0.551144	-0.0201489	-0.122314	0.273069	-0.115542	0	0	0.440293	-0.000776182	-0.0255912	-0.0720283	-0.250708	0.529524	0.386687	1.5708	0	0	-0.215484	-0.298311	0.364585	0.571617	1.19045	0	0
0.13	-3.08423	1.11281	1.48818	0.71218	1.68226	1.02338	0.630558	-0.0582511	-0.039601	1.01296	-0.248179	0	0	0.533672	-0.0229992	-0.125049	0.264502	-0.118592	0	0	0.441052	0.00480466	-0.0334502	-0.0761754	-0.251238	0.535444	0.376109	1.5708	0	0	-0.214561	-0.298843	0.35594	0.587502	1.20086	0	0
0.14	-3.07518	1.11384	1.47972	0.712654	1.67045	1.02548	0.646824	-0.0544219	-0.0419476	0.998657	-0.228253	0	0	0.515512	-0.0264834	-0.128371	0.2556	-0.1217	0	0	0.440585	0.0109912	-0.039822	-0.0810899	-0.25155	0.53551	0.367515	1.5708	0	0	-0.213249	-0.299586	0.347155	0.604683	1.21184	0	0
0.15	-3.0666	1.11536	1.4703	0.712952	1.65875	1.02749	0.662093	-0.0496713	-0.0431335	0.981164	-0.207395	0	0	0.496566	-0.030195	-0.131804	0.246251	-0.124757	0	0	0.438411	0.0175727	-0.0441452	-0.0863278	-0.251752	0.529577	0.360694	1.5708	0	0	-0.211301	-0.300486	0.337869	0.623254	1.22332	0	0
0.16	-3.05939	1.11594	1.46108	0.713103	1.64725	1.02928	0.677793	-0.044101	-0.0420581	0.960118	-0.185834	0	0	0.478292	-0.0335554	-0.133882	0.236216	-0.127674	0	0	0.436422	0.0241667	-0.04648	-0.0918444	-0.251743	0.519892	0.35501	1.5708	0	0	-0.208836	-0.301578	0.328379	0.642632	1.23574	0	0
0.17	-3.05323	1.1143	1.45365	0.713235	1.63583	1.03073	0.694607	-0.0389749	-0.0418352	0.934772	-0.164239	0	0	0.4617	-0.0366182	-0.137366	0.223914	-0.132132	0	0	0.436998	0.0300778	-0.0487167	-0.098299	-0.250962	0.507671	0.349556	1.5708	0	0	-0.206918	-0.303073	0.318822	0.662939	1.24936	0	0
0.18	-3.0456	1.11159	1.44773	0.713471	1.62431	1.03197	0.710259	-0.0347341	-0.0445772	0.904447	-0.143854	0	0	0.446316	-0.0394676	-0.140998	0.211284	-0.138135	0	0	0.439208	0.0352013	-0.0533849	-0.105895	-0.249448	0.490393	0.344966	1.5708	0	0	-0.205317	-0.304584	0.309099	0.682912	1.26378	0	0
0.19	-3.03835	1.10854	1.44318	0.713709	1.61285	1.03298	0.724575	-0.0308372	-0.0476727	0.869114	-0.125729	0	0	0.431412	-0.0416659	-0.144697	0.198706	-0.144609	0	0	0.441478	0.0396178	-0.058393	-0.113934	-0.247422	0.468264	0.341652	1.5708	0	0	-0.203539	-0.306165	0.299286	0.703368	1.27856	0	0
0.2	-3.03248	1.10516	1.43992	0.713896	1.6014	1.03373	0.737785	-0.0272252	-0.0503511	0.82895	-0.110624	0	0	0.416597	-0.043168	-0.149169	0.18562	-0.150376	0	0	0.443925	0.0434883	-0.0627729	-0.122107	-0.244812	0.442071	0.33904	1.5708	0	0	-0.201792	-0.307854	0.289513	0.724288	1.29373	0	0
0.21	-3.02874	1.10128	1.43851	0.714081	1.58997	1.03418	0.750139	-0.0244013	-0.0522867	0.784136	-0.0995415	0	0	0.402038	-0.0439524	-0.156223	0.171777	-0.156134	0	0	0.446907	0.0465739	-0.0660787	-0.130526	-0.242305	0.418066	0.337429	1.5708	0	0	-0.199954	-0.309587	0.280122	0.745496	1.30882	0	0
0.22	-3.02577	1.09757	1.43803	0.714267	1.57853	1.03438	0.760597	-0.0221785	-0.0545804	0.734542	-0.0927112	0	0	0.387383	-0.0441826	-0.163153	0.158146	-0.161819	0	0	0.4497	0.0491873	-0.0691141	-0.138622	-0.240116	0.397336	0.336422	1.5708	0	0	-0.197971	-0.311449	0.271319	0.76684	1.32346	0	0
0.23	-3.02056	1.09493	1.43788	0.714637	1.5672	1.03435	0.767827	-0.0207138	-0.0599932	0.680006	-0.0893228	0	0	0.372555	-0.0444475	-0.166708	0.146219	-0.166826	0	0	0.450506	0.0516177	-0.0742279	-0.145485	-0.238403	0.380186	0.336006	1.5708	0	0	-0.194927	-0.313396	0.263463	0.788257	1.33751	0	0
